<svg width="36" height="36" viewBox="0 0 36 36" fill="none" xmlns="http://www.w3.org/2000/svg">
<path d="M18 23.7273C19.5818 23.7273 20.9318 23.1682 22.05 22.05C23.1682 20.9318 23.7273 19.5818 23.7273 18C23.7273 16.4182 23.1682 15.0682 22.05 13.95C20.9318 12.8318 19.5818 12.2727 18 12.2727C16.4182 12.2727 15.0682 12.8318 13.95 13.95C12.8318 15.0682 12.2727 16.4182 12.2727 18C12.2727 19.5818 12.8318 20.9318 13.95 22.05C15.0682 23.1682 16.4182 23.7273 18 23.7273ZM18 26.1818C15.7364 26.1818 13.8068 25.3841 12.2114 23.7886C10.6159 22.1932 9.81818 20.2636 9.81818 18C9.81818 15.7364 10.6159 13.8068 12.2114 12.2114C13.8068 10.6159 15.7364 9.81818 18 9.81818C20.2636 9.81818 22.1932 10.6159 23.7886 12.2114C25.3841 13.8068 26.1818 15.7364 26.1818 18C26.1818 20.2636 25.3841 22.1932 23.7886 23.7886C22.1932 25.3841 20.2636 26.1818 18 26.1818ZM1.22727 19.2273C0.872727 19.2273 0.579545 19.1114 0.347727 18.8795C0.115909 18.6477 0 18.3545 0 18C0 17.6455 0.115909 17.3523 0.347727 17.1205C0.579545 16.8886 0.872727 16.7727 1.22727 16.7727H5.31818C5.67273 16.7727 5.96591 16.8886 6.19773 17.1205C6.42955 17.3523 6.54545 17.6455 6.54545 18C6.54545 18.3545 6.42955 18.6477 6.19773 18.8795C5.96591 19.1114 5.67273 19.2273 5.31818 19.2273H1.22727ZM30.6818 19.2273C30.3273 19.2273 30.0341 19.1114 29.8023 18.8795C29.5705 18.6477 29.4545 18.3545 29.4545 18C29.4545 17.6455 29.5705 17.3523 29.8023 17.1205C30.0341 16.8886 30.3273 16.7727 30.6818 16.7727H34.7727C35.1273 16.7727 35.4205 16.8886 35.6523 17.1205C35.8841 17.3523 36 17.6455 36 18C36 18.3545 35.8841 18.6477 35.6523 18.8795C35.4205 19.1114 35.1273 19.2273 34.7727 19.2273H30.6818ZM18 6.54545C17.6455 6.54545 17.3523 6.42955 17.1205 6.19773C16.8886 5.96591 16.7727 5.67273 16.7727 5.31818V1.22727C16.7727 0.872727 16.8886 0.579545 17.1205 0.347727C17.3523 0.115909 17.6455 0 18 0C18.3545 0 18.6477 0.115909 18.8795 0.347727C19.1114 0.579545 19.2273 0.872727 19.2273 1.22727V5.31818C19.2273 5.67273 19.1114 5.96591 18.8795 6.19773C18.6477 6.42955 18.3545 6.54545 18 6.54545ZM18 36C17.6455 36 17.3523 35.8841 17.1205 35.6523C16.8886 35.4205 16.7727 35.1273 16.7727 34.7727V30.6818C16.7727 30.3273 16.8886 30.0341 17.1205 29.8023C17.3523 29.5705 17.6455 29.4545 18 29.4545C18.3545 29.4545 18.6477 29.5705 18.8795 29.8023C19.1114 30.0341 19.2273 30.3273 19.2273 30.6818V34.7727C19.2273 35.1273 19.1114 35.4205 18.8795 35.6523C18.6477 35.8841 18.3545 36 18 36ZM8.18182 9.9L5.85 7.60909C5.60455 7.36364 5.48864 7.07045 5.50227 6.72955C5.51591 6.38864 5.63182 6.09545 5.85 5.85C6.09545 5.60455 6.38864 5.48182 6.72955 5.48182C7.07045 5.48182 7.36364 5.60455 7.60909 5.85L9.9 8.18182C10.1182 8.42727 10.2273 8.71364 10.2273 9.04091C10.2273 9.36818 10.1182 9.64091 9.9 9.85909C9.68182 10.1045 9.40227 10.2273 9.06136 10.2273C8.72045 10.2273 8.42727 10.1182 8.18182 9.9ZM28.3909 30.15L26.1 27.8182C25.8818 27.5727 25.7727 27.2795 25.7727 26.9386C25.7727 26.5977 25.8955 26.3182 26.1409 26.1C26.3591 25.8545 26.6318 25.7318 26.9591 25.7318C27.2864 25.7318 27.5727 25.8545 27.8182 26.1L30.15 28.3909C30.3955 28.6364 30.5114 28.9295 30.4977 29.2705C30.4841 29.6114 30.3682 29.9045 30.15 30.15C29.9045 30.3955 29.6114 30.5182 29.2705 30.5182C28.9295 30.5182 28.6364 30.3955 28.3909 30.15ZM26.1 9.9C25.8545 9.65455 25.7318 9.36818 25.7318 9.04091C25.7318 8.71364 25.8545 8.42727 26.1 8.18182L28.3909 5.85C28.6364 5.60455 28.9295 5.48864 29.2705 5.50227C29.6114 5.51591 29.9045 5.63182 30.15 5.85C30.3955 6.09545 30.5182 6.38864 30.5182 6.72955C30.5182 7.07045 30.3955 7.36364 30.15 7.60909L27.8182 9.9C27.6 10.1182 27.3205 10.2273 26.9795 10.2273C26.6386 10.2273 26.3455 10.1182 26.1 9.9ZM5.85 30.15C5.60455 29.9045 5.48182 29.6114 5.48182 29.2705C5.48182 28.9295 5.60455 28.6364 5.85 28.3909L8.18182 26.1C8.42727 25.8545 8.71364 25.7318 9.04091 25.7318C9.36818 25.7318 9.65455 25.8545 9.9 26.1C10.1455 26.3455 10.2682 26.6318 10.2682 26.9591C10.2682 27.2864 10.1455 27.5727 9.9 27.8182L7.60909 30.15C7.36364 30.3955 7.07045 30.5114 6.72955 30.4977C6.38864 30.4841 6.09545 30.3682 5.85 30.15Z" fill="#323238"/>
</svg>
